<?xml version="1.0" standalone="no"?>
<!DOCTYPE svg PUBLIC "-//W3C//DTD SVG 20010904//EN"
 "http://www.w3.org/TR/2001/REC-SVG-20010904/DTD/svg10.dtd">
<svg version="1.0" xmlns="http://www.w3.org/2000/svg"
 width="80.000000pt" height="80.000000pt" viewBox="0 0 80.000000 80.000000"
 preserveAspectRatio="xMidYMid meet">
<metadata>
Created by potrace 1.11, written by Peter Selinger 2001-2013
</metadata>
<g transform="translate(0.000000,80.000000) scale(0.100000,-0.100000)"
fill="#000000" stroke="none">
<path d="M263 776 c-54 -26 -125 -91 -149 -138 -21 -40 -46 -156 -39 -179 8
-25 45 -60 57 -53 4 3 8 0 8 -7 0 -10 3 -10 12 -1 7 7 20 12 29 12 22 0 34
-31 17 -42 -10 -7 -9 -8 2 -5 8 2 14 12 14 21 -2 13 1 14 12 5 8 -6 11 -15 8
-20 -3 -5 0 -17 6 -26 9 -15 10 -14 4 6 -4 17 -3 22 7 18 8 -2 13 -10 11 -16
-1 -7 2 -10 7 -7 15 10 41 -23 34 -42 -16 -46 -53 -55 -104 -25 -30 18 -38 38
-16 46 7 3 4 6 -6 6 -10 1 -15 6 -12 11 4 7 13 7 26 0 11 -7 17 -16 12 -23 -4
-7 0 -7 10 2 16 12 14 37 -2 27 -4 -3 -25 5 -47 18 -53 30 -90 20 -80 -22 4
-15 8 -35 9 -44 1 -9 5 -15 9 -12 3 2 6 -15 5 -40 -1 -26 5 -51 13 -62 8 -9
15 -27 15 -38 1 -21 19 -30 21 -11 0 6 2 16 2 23 1 7 7 10 12 7 6 -4 10 -3 9
2 -1 4 -1 17 0 28 1 15 3 17 10 6 6 -9 11 -10 15 -2 4 6 12 9 17 5 6 -4 6 -11
-2 -20 -8 -10 -8 -14 0 -14 7 0 11 -21 11 -54 0 -34 5 -56 13 -59 8 -4 8 -6
-2 -6 -11 -1 -10 -5 5 -17 10 -8 12 -12 4 -8 -11 5 -12 4 -4 -5 12 -13 57 -24
49 -12 -6 11 24 23 37 15 7 -4 8 4 3 24 -3 16 -2 33 3 36 9 5 11 -2 14 -48 1
-14 6 -22 10 -20 4 3 8 0 8 -6 0 -7 19 -10 50 -9 38 2 47 5 39 15 -7 8 -6 14
1 19 6 4 9 13 6 21 -3 7 -1 16 3 19 5 3 14 -9 20 -27 14 -39 14 -41 -1 -32 -7
4 -8 3 -4 -4 9 -15 56 -15 76 -1 13 9 12 10 -2 5 -10 -3 -20 0 -24 7 -4 7 -4
9 1 5 4 -4 14 0 22 10 8 9 12 12 9 6 -3 -6 1 -11 8 -11 9 0 12 13 11 39 -1 21
2 41 7 44 5 3 5 11 -2 19 -8 9 -6 15 7 20 10 5 21 7 26 7 10 -3 9 16 -2 22 -5
3 -12 -1 -15 -10 -4 -9 -9 -14 -13 -11 -3 4 0 13 7 22 15 18 55 1 46 -20 -5
-14 18 -15 31 0 4 4 2 5 -6 0 -9 -5 -12 -4 -7 3 4 7 13 12 21 12 17 0 27 40
19 78 -4 17 -1 32 5 36 6 4 9 12 6 17 -4 5 -2 9 3 9 7 0 8 12 3 51 -2 12 -32
19 -56 13 -18 -4 -24 -15 -30 -50 -5 -35 -12 -47 -33 -57 -15 -7 -33 -12 -39
-11 -7 1 -21 2 -30 3 -19 1 -10 14 12 17 9 1 12 -2 9 -8 -4 -7 -2 -8 4 -4 8 5
9 13 2 25 -5 10 -6 21 -3 25 3 3 1 6 -6 6 -8 0 -10 -8 -6 -22 6 -19 5 -21 -6
-10 -7 6 -18 12 -24 12 -5 0 -3 -5 5 -11 10 -7 11 -9 2 -7 -8 2 -13 7 -13 11
1 4 1 14 1 23 0 8 5 12 10 9 6 -3 10 1 10 9 0 9 3 15 8 15 4 -1 14 -1 22 0 12
1 12 3 2 10 -10 6 -5 11 18 19 24 9 30 9 27 -1 -2 -6 -9 -11 -15 -10 -5 1 -9
-5 -7 -15 1 -10 9 -16 20 -14 11 2 14 -1 9 -9 -4 -8 -3 -10 4 -5 9 5 9 13 2
27 -6 11 -7 19 -1 19 5 0 8 8 6 18 -1 9 0 11 2 5 3 -7 9 -13 15 -13 5 0 8 6 5
14 -4 10 0 12 14 9 33 -9 50 67 36 158 -12 81 -71 154 -160 201 -32 16 -64 23
-132 25 -79 4 -96 1 -142 -21z m252 -81 c64 -29 125 -126 125 -197 0 -18 -4
-20 -37 -14 -21 3 -50 6 -64 6 -28 0 -44 26 -81 134 -12 33 -27 71 -35 83 -14
22 -14 22 24 12 21 -6 52 -16 68 -24z m-144 2 c-5 -12 -23 -60 -41 -107 -18
-47 -35 -88 -39 -92 -3 -3 -33 -10 -65 -13 -44 -6 -57 -5 -52 4 4 7 2 19 -6
28 -11 14 -11 16 3 11 9 -4 16 -1 16 8 0 7 -4 11 -9 8 -4 -3 -8 -1 -8 5 0 5 4
12 9 15 5 3 12 17 15 31 9 36 87 106 124 111 8 2 15 4 17 6 2 2 13 4 24 5 17
1 19 -2 12 -20z m49 -457 c12 -22 11 -24 -2 -13 -8 7 -17 10 -21 7 -3 -3 -4 2
-2 13 2 10 4 20 4 22 1 6 7 -1 21 -29z"/>
<path d="M170 380 c-9 -6 -10 -10 -3 -10 6 0 15 5 18 10 8 12 4 12 -15 0z"/>
<path d="M596 87 c3 -10 9 -15 12 -12 3 3 0 11 -7 18 -10 9 -11 8 -5 -6z"/>
</g>
</svg>
